# xmcd
#
# Track frame offsets:
#  183
#  9975
#  21088
#  31298
#  44693
#  57428
#  70210
#  83213
#  92815
#  101620
#  112598
#  121340
#  132428
#  145233
#  158118
#  169558
#  182343
#  192128
#  204583
#  216445
#
# Disc length: 2986 seconds
#
# Revision: 0
# Processed by: cddbd v1.4PL0 Copyright (c) Steve Scherf et al.
# Submitted via: AlterCode_WhopSee 2.7
#
DISCID=0f0ba814
DTITLE=Carl Perkins - Blue Suede Shoes - Original Hits
DYEAR=1900
DGENRE=
TTITLE0=Matchbox
TTITLE1=Pink Pedal Pushers
TTITLE2=Blue Suede Shoes
TTITLE3=Turn Around 
TTITLE4=Boppin' The Blues
TTITLE5=That´s Right
TTITLE6=Let The Jukebox Keep Playing
TTITLE7=All Mama's Children
TTITLE8=Honky Tonk Gal
TTITLE9=Dixie Fried
TTITLE10=Everybody's Trying To Be My Baby
TTITLE11=I'm Sorry I'm Not Sorry
TTITLE12=Put Your Cat Clothes On
TTITLE13=Roll Over Beethoven
TTITLE14=Sure To Fall
TTITLE15=Honey Don't
TTITLE16=Movie Magg
TTITLE17=Your True Love
TTITLE18=Gone, Gone, Gone
TTITLE19=Glad All Over
EXTD=
EXTT0=
EXTT1=
EXTT2=
EXTT3=
EXTT4=
EXTT5=
EXTT6=
EXTT7=
EXTT8=
EXTT9=
EXTT10=
EXTT11=
EXTT12=
EXTT13=
EXTT14=
EXTT15=
EXTT16=
EXTT17=
EXTT18=
EXTT19=
PLAYORDER=
